<mxfile host="Electron" modified="2023-11-30T09:34:24.219Z" agent="Mozilla/5.0 (Macintosh; Intel Mac OS X 10_15_7) AppleWebKit/537.36 (KHTML, like Gecko) draw.io/21.5.0 Chrome/112.0.5615.204 Electron/24.5.1 Safari/537.36" etag="hWtogZ8MteSCsGjRyzWv" version="21.5.0" type="device" pages="5">
  <diagram id="QMjJqxT-OFG9LvJcu02_" name="ClassDiagram">
    <mxGraphModel dx="1834" dy="1159" grid="1" gridSize="10" guides="1" tooltips="1" connect="1" arrows="1" fold="1" page="0" pageScale="1" pageWidth="4681" pageHeight="3300" background="none" math="0" shadow="0">
      <root>
        <mxCell id="0" />
        <mxCell id="1" parent="0" />
        <mxCell id="N3z-gIHmasYd1JVoCF0x-1" value="&lt;p style=&quot;margin:0px;margin-top:4px;text-align:center;&quot;&gt;&lt;b&gt;API&lt;/b&gt;&lt;/p&gt;&lt;hr size=&quot;1&quot;/&gt;&lt;p style=&quot;margin:0 0 0 4px;line-height:1.6;&quot;&gt;+ API(String, String): &lt;/p&gt;&lt;hr size=&quot;1&quot;/&gt;&lt;p style=&quot;margin:0 0 0 4px;line-height:1.6;&quot;&gt;- APIKey: String&lt;br/&gt;- APIURL: String&lt;/p&gt;&lt;hr size=&quot;1&quot;/&gt;&lt;p style=&quot;margin:0 0 0 4px;line-height:1.6;&quot;&gt; APIURL: String&lt;br/&gt; APIKey: String&lt;/p&gt;" style="verticalAlign=top;align=left;overflow=fill;fontSize=14;fontFamily=Helvetica;html=1;rounded=0;shadow=0;comic=0;labelBackgroundColor=none;strokeWidth=1;" vertex="1" parent="1">
          <mxGeometry x="2311" y="-21" width="229" height="237" as="geometry" />
        </mxCell>
        <mxCell id="N3z-gIHmasYd1JVoCF0x-2" value="&lt;p style=&quot;margin:0px;margin-top:4px;text-align:center;&quot;&gt;&lt;b&gt;APITextToSpeech&lt;/b&gt;&lt;/p&gt;&lt;hr size=&quot;1&quot;/&gt;&lt;p style=&quot;margin:0 0 0 4px;line-height:1.6;&quot;&gt;+ APITextToSpeech(String, String): &lt;/p&gt;&lt;hr size=&quot;1&quot;/&gt;&lt;p style=&quot;margin:0 0 0 4px;line-height:1.6;&quot;&gt;+ textToSpeech(String, String): byte[]&lt;/p&gt;" style="verticalAlign=top;align=left;overflow=fill;fontSize=14;fontFamily=Helvetica;html=1;rounded=0;shadow=0;comic=0;labelBackgroundColor=none;strokeWidth=1;" vertex="1" parent="1">
          <mxGeometry x="2055" y="266" width="367" height="134" as="geometry" />
        </mxCell>
        <mxCell id="N3z-gIHmasYd1JVoCF0x-3" value="&lt;p style=&quot;margin:0px;margin-top:4px;text-align:center;&quot;&gt;&lt;b&gt;APITextTranslate&lt;/b&gt;&lt;/p&gt;&lt;hr size=&quot;1&quot;/&gt;&lt;p style=&quot;margin:0 0 0 4px;line-height:1.6;&quot;&gt;+ APITextTranslate(String, String): &lt;/p&gt;&lt;hr size=&quot;1&quot;/&gt;&lt;p style=&quot;margin:0 0 0 4px;line-height:1.6;&quot;&gt;+ translate(String): String&lt;/p&gt;" style="verticalAlign=top;align=left;overflow=fill;fontSize=14;fontFamily=Helvetica;html=1;rounded=0;shadow=0;comic=0;labelBackgroundColor=none;strokeWidth=1;" vertex="1" parent="1">
          <mxGeometry x="2442" y="266" width="341" height="134" as="geometry" />
        </mxCell>
        <mxCell id="N3z-gIHmasYd1JVoCF0x-4" value="&lt;p style=&quot;margin:0px;margin-top:4px;text-align:center;&quot;&gt;&lt;b&gt;AnimatedImage&lt;/b&gt;&lt;/p&gt;&lt;hr size=&quot;1&quot;/&gt;&lt;p style=&quot;margin:0 0 0 4px;line-height:1.6;&quot;&gt;+ AnimatedImage(): &lt;/p&gt;&lt;hr size=&quot;1&quot;/&gt;&lt;p style=&quot;margin:0 0 0 4px;line-height:1.6;&quot;&gt;+ getFrame(double): Image&lt;/p&gt;" style="verticalAlign=top;align=left;overflow=fill;fontSize=14;fontFamily=Helvetica;html=1;rounded=0;shadow=0;comic=0;labelBackgroundColor=none;strokeWidth=1;" vertex="1" parent="1">
          <mxGeometry x="2371" y="2285" width="279" height="134" as="geometry" />
        </mxCell>
        <mxCell id="N3z-gIHmasYd1JVoCF0x-5" value="&lt;p style=&quot;margin:0px;margin-top:4px;text-align:center;&quot;&gt;&lt;b&gt;AudioLogic&lt;/b&gt;&lt;/p&gt;&lt;hr size=&quot;1&quot;/&gt;&lt;p style=&quot;margin:0 0 0 4px;line-height:1.6;&quot;&gt;- AudioLogic(): &lt;/p&gt;&lt;hr size=&quot;1&quot;/&gt;&lt;p style=&quot;margin:0 0 0 4px;line-height:1.6;&quot;&gt;- instance: AudioLogic&lt;/p&gt;&lt;hr size=&quot;1&quot;/&gt;&lt;p style=&quot;margin:0 0 0 4px;line-height:1.6;&quot;&gt;+ setTextFollowFormatRapidApi(String): String&lt;br/&gt;+ playAudio(String, String): void&lt;br/&gt;+ playAudio2(String): void&lt;br/&gt;+ pauseAudio(): void&lt;br/&gt;+ playSoundtrack(String): void&lt;/p&gt;&lt;hr size=&quot;1&quot;/&gt;&lt;p style=&quot;margin:0 0 0 4px;line-height:1.6;&quot;&gt; instance: AudioLogic&lt;/p&gt;" style="verticalAlign=top;align=left;overflow=fill;fontSize=14;fontFamily=Helvetica;html=1;rounded=0;shadow=0;comic=0;labelBackgroundColor=none;strokeWidth=1;" vertex="1" parent="1">
          <mxGeometry x="672" y="1551" width="436" height="350" as="geometry" />
        </mxCell>
        <mxCell id="N3z-gIHmasYd1JVoCF0x-6" value="&lt;p style=&quot;margin:0px;margin-top:4px;text-align:center;&quot;&gt;&lt;b&gt;BusinessLogic&lt;/b&gt;&lt;/p&gt;&lt;hr size=&quot;1&quot;/&gt;&lt;p style=&quot;margin:0 0 0 4px;line-height:1.6;&quot;&gt;+ BusinessLogic(): &lt;/p&gt;&lt;hr size=&quot;1&quot;/&gt;&lt;p style=&quot;margin:0 0 0 4px;line-height:1.6;&quot;&gt;~ btnSearchAction(ActionEvent): void&lt;br/&gt;~ close(MouseEvent): void&lt;br/&gt;~ moveSettingBtn(MouseEvent): void&lt;br/&gt;~ favoritesAction(ActionEvent): void&lt;br/&gt;~ upperCaseFirstLetter(String): String&lt;br/&gt;~ loadCssForWebView(): void&lt;br/&gt;~ clickSettingBtn(MouseEvent): void&lt;br/&gt;~ showAlert(String, String, AlertType): void&lt;br/&gt;~ clickDownload(MouseEvent): void&lt;br/&gt;~ updateBtnEdit(ActionEvent): void&lt;br/&gt;~ deleteBtnEdit(ActionEvent): void&lt;br/&gt;~ clickSuggestionWordTable(MouseEvent): void&lt;br/&gt;~ exitSettingBtn(MouseEvent): void&lt;br/&gt;~ clickBtnUS(MouseEvent): void&lt;br/&gt;~ clickStarToMark(MouseEvent): void&lt;br/&gt;~ addBtnEdit(ActionEvent): void&lt;br/&gt;~ clickGame2(ActionEvent): void&lt;br/&gt;~ intro(): void&lt;br/&gt;~ saveSystem(File, String): void&lt;br/&gt;~ clickGame1(ActionEvent): void&lt;br/&gt;~ gamesAction(ActionEvent): void&lt;br/&gt;~ textKeyEvent(KeyEvent): void&lt;br/&gt;~ translateTextTranslation(ActionEvent): void&lt;br/&gt;~ updateTableView(ObservableList&amp;lt;String&amp;gt;, String): void&lt;br/&gt;~ textTranslationAction(ActionEvent): void&lt;br/&gt;~ soundInTextTranslation(MouseEvent): void&lt;br/&gt;~ clickStarToUnMark(MouseEvent): void&lt;br/&gt;~ clickBtnUK(MouseEvent): void&lt;br/&gt;~ recentAction(ActionEvent): void&lt;br/&gt;~ btnEditAction(ActionEvent): void&lt;br/&gt;~ changeTranslationSetting(MouseEvent): void&lt;br/&gt;~ searchLogic(): void&lt;/p&gt;&lt;hr size=&quot;1&quot;/&gt;&lt;p style=&quot;margin:0 0 0 4px;line-height:1.6;&quot;&gt; visibleFalse: List&amp;lt;Node&amp;gt;&lt;br/&gt; favoritesBtn: String&lt;/p&gt;" style="verticalAlign=top;align=left;overflow=fill;fontSize=14;fontFamily=Helvetica;html=1;rounded=0;shadow=0;comic=0;labelBackgroundColor=none;strokeWidth=1;" vertex="1" parent="1">
          <mxGeometry x="153" y="-21" width="523" height="1317" as="geometry" />
        </mxCell>
        <mxCell id="N3z-gIHmasYd1JVoCF0x-7" value="&lt;p style=&quot;margin:0px;margin-top:4px;text-align:center;&quot;&gt;&lt;b&gt;Cache&lt;/b&gt;&lt;/p&gt;&lt;hr size=&quot;1&quot;/&gt;&lt;p style=&quot;margin:0 0 0 4px;line-height:1.6;&quot;&gt;+ Cache(): &lt;/p&gt;&lt;hr size=&quot;1&quot;/&gt;&lt;p style=&quot;margin:0 0 0 4px;line-height:1.6;&quot;&gt;+ deleteAllDataInCache(): void&lt;br/&gt;+ putDataFromMySQL(): void&lt;br/&gt;+ getDataFromCache(String): List&amp;lt;String&amp;gt;&lt;br/&gt;+ disconnect(): void&lt;/p&gt;" style="verticalAlign=top;align=left;overflow=fill;fontSize=14;fontFamily=Helvetica;html=1;rounded=0;shadow=0;comic=0;labelBackgroundColor=none;strokeWidth=1;" vertex="1" parent="1">
          <mxGeometry x="1574" y="1972" width="403" height="232" as="geometry" />
        </mxCell>
        <mxCell id="N3z-gIHmasYd1JVoCF0x-8" value="&lt;p style=&quot;margin:0px;margin-top:4px;text-align:center;&quot;&gt;&lt;b&gt;Content&lt;/b&gt;&lt;/p&gt;&lt;hr size=&quot;1&quot;/&gt;&lt;p style=&quot;margin:0 0 0 4px;line-height:1.6;&quot;&gt;+ Content(): &lt;/p&gt;&lt;hr size=&quot;1&quot;/&gt;&lt;p style=&quot;margin:0 0 0 4px;line-height:1.6;&quot;&gt;~ status: int&lt;/p&gt;&lt;hr size=&quot;1&quot;/&gt;&lt;p style=&quot;margin:0 0 0 4px;line-height:1.6;&quot;&gt; status: int&lt;/p&gt;" style="verticalAlign=top;align=left;overflow=fill;fontSize=14;fontFamily=Helvetica;html=1;rounded=0;shadow=0;comic=0;labelBackgroundColor=none;strokeWidth=1;" vertex="1" parent="1">
          <mxGeometry x="534" y="2285" width="165" height="165" as="geometry" />
        </mxCell>
        <mxCell id="N3z-gIHmasYd1JVoCF0x-9" value="&lt;p style=&quot;margin:0px;margin-top:4px;text-align:center;&quot;&gt;&lt;b&gt;Database&lt;/b&gt;&lt;/p&gt;&lt;hr size=&quot;1&quot;/&gt;&lt;p style=&quot;margin:0 0 0 4px;line-height:1.6;&quot;&gt;+ Database(String, String, String): &lt;/p&gt;&lt;hr size=&quot;1&quot;/&gt;&lt;p style=&quot;margin:0 0 0 4px;line-height:1.6;&quot;&gt;- PASSWORD: String&lt;br/&gt;- USER: String&lt;br/&gt;- URL: String&lt;/p&gt;&lt;hr size=&quot;1&quot;/&gt;&lt;p style=&quot;margin:0 0 0 4px;line-height:1.6;&quot;&gt;+ queryUpdate(String): boolean&lt;br/&gt;+ disconnectToDatabase(): void&lt;br/&gt;+ queryGetData(String): ResultSet&lt;br/&gt;+ connectToDatabase(): void&lt;/p&gt;&lt;hr size=&quot;1&quot;/&gt;&lt;p style=&quot;margin:0 0 0 4px;line-height:1.6;&quot;&gt; USER: String&lt;br/&gt; URL: String&lt;br/&gt; PASSWORD: String&lt;br/&gt; USERNAME: String&lt;/p&gt;" style="verticalAlign=top;align=left;overflow=fill;fontSize=14;fontFamily=Helvetica;html=1;rounded=0;shadow=0;comic=0;labelBackgroundColor=none;strokeWidth=1;" vertex="1" parent="1">
          <mxGeometry x="1673" y="-21" width="337" height="494" as="geometry" />
        </mxCell>
        <mxCell id="N3z-gIHmasYd1JVoCF0x-10" value="&lt;p style=&quot;margin:0px;margin-top:4px;text-align:center;&quot;&gt;&lt;b&gt;EditLogic&lt;/b&gt;&lt;/p&gt;&lt;hr size=&quot;1&quot;/&gt;&lt;p style=&quot;margin:0 0 0 4px;line-height:1.6;&quot;&gt;- EditLogic(): &lt;/p&gt;&lt;hr size=&quot;1&quot;/&gt;&lt;p style=&quot;margin:0 0 0 4px;line-height:1.6;&quot;&gt;- instance: EditLogic&lt;/p&gt;&lt;hr size=&quot;1&quot;/&gt;&lt;p style=&quot;margin:0 0 0 4px;line-height:1.6;&quot;&gt;+ update(String, String): boolean&lt;br/&gt;+ insert(String, String): boolean&lt;br/&gt;+ delete(String): boolean&lt;/p&gt;&lt;hr size=&quot;1&quot;/&gt;&lt;p style=&quot;margin:0 0 0 4px;line-height:1.6;&quot;&gt; instance: EditLogic&lt;/p&gt;" style="verticalAlign=top;align=left;overflow=fill;fontSize=14;fontFamily=Helvetica;html=1;rounded=0;shadow=0;comic=0;labelBackgroundColor=none;strokeWidth=1;" vertex="1" parent="1">
          <mxGeometry x="2048" y="1551" width="324" height="278" as="geometry" />
        </mxCell>
        <mxCell id="N3z-gIHmasYd1JVoCF0x-11" value="&lt;p style=&quot;margin:0px;margin-top:4px;text-align:center;&quot;&gt;&lt;b&gt;FavoritesLogic&lt;/b&gt;&lt;/p&gt;&lt;hr size=&quot;1&quot;/&gt;&lt;p style=&quot;margin:0 0 0 4px;line-height:1.6;&quot;&gt;- FavoritesLogic(): &lt;/p&gt;&lt;hr size=&quot;1&quot;/&gt;&lt;p style=&quot;margin:0 0 0 4px;line-height:1.6;&quot;&gt;- instance: FavoritesLogic&lt;/p&gt;&lt;hr size=&quot;1&quot;/&gt;&lt;p style=&quot;margin:0 0 0 4px;line-height:1.6;&quot;&gt;+ addTextToFavorite(String): void&lt;br/&gt;+ deleteTextInFavorite(String): void&lt;br/&gt;+ checkTextInFavouriteFile(String): boolean&lt;/p&gt;&lt;hr size=&quot;1&quot;/&gt;&lt;p style=&quot;margin:0 0 0 4px;line-height:1.6;&quot;&gt; instance: FavoritesLogic&lt;br/&gt; contentInFavourite: ObservableList&amp;lt;String&amp;gt;&lt;/p&gt;" style="verticalAlign=top;align=left;overflow=fill;fontSize=14;fontFamily=Helvetica;html=1;rounded=0;shadow=0;comic=0;labelBackgroundColor=none;strokeWidth=1;" vertex="1" parent="1">
          <mxGeometry x="1153" y="1551" width="426" height="314" as="geometry" />
        </mxCell>
        <mxCell id="N3z-gIHmasYd1JVoCF0x-12" value="&lt;p style=&quot;margin:0px;margin-top:4px;text-align:center;&quot;&gt;&lt;b&gt;HangmanMain&lt;/b&gt;&lt;/p&gt;&lt;hr size=&quot;1&quot;/&gt;&lt;p style=&quot;margin:0 0 0 4px;line-height:1.6;&quot;&gt;+ HangmanMain(): &lt;/p&gt;&lt;hr size=&quot;1&quot;/&gt;&lt;p style=&quot;margin:0 0 0 4px;line-height:1.6;&quot;&gt;- startGame(): int&lt;br/&gt;+ main(String[]): void&lt;br/&gt;+ start(Stage): void&lt;br/&gt;+ addTextLimiter(TextField, int): void&lt;br/&gt;+ createContent(): Parent&lt;br/&gt;- stopGame(): void&lt;br/&gt;+ switchtoMain(ActionEvent): void&lt;/p&gt;" style="verticalAlign=top;align=left;overflow=fill;fontSize=14;fontFamily=Helvetica;html=1;rounded=0;shadow=0;comic=0;labelBackgroundColor=none;strokeWidth=1;" vertex="1" parent="1">
          <mxGeometry x="812" y="-21" width="358" height="340" as="geometry" />
        </mxCell>
        <mxCell id="N3z-gIHmasYd1JVoCF0x-13" value="&lt;p style=&quot;margin:0px;margin-top:4px;text-align:center;&quot;&gt;&lt;b&gt;Letter&lt;/b&gt;&lt;/p&gt;&lt;hr size=&quot;1&quot;/&gt;&lt;p style=&quot;margin:0 0 0 4px;line-height:1.6;&quot;&gt;+ Letter(char): &lt;/p&gt;&lt;hr size=&quot;1&quot;/&gt;&lt;p style=&quot;margin:0 0 0 4px;line-height:1.6;&quot;&gt;+ show(): void&lt;br/&gt;+ isEqualTo(char): boolean&lt;/p&gt;" style="verticalAlign=top;align=left;overflow=fill;fontSize=14;fontFamily=Helvetica;html=1;rounded=0;shadow=0;comic=0;labelBackgroundColor=none;strokeWidth=1;" vertex="1" parent="1">
          <mxGeometry x="1674" y="558" width="275" height="160" as="geometry" />
        </mxCell>
        <mxCell id="N3z-gIHmasYd1JVoCF0x-14" value="&lt;p style=&quot;margin:0px;margin-top:4px;text-align:center;&quot;&gt;&lt;i&gt;&amp;lt;&amp;lt;enumeration&amp;gt;&amp;gt;&lt;/i&gt;&lt;br/&gt;&lt;b&gt;MODE&lt;/b&gt;&lt;/p&gt;&lt;hr size=&quot;1&quot;/&gt;&lt;p style=&quot;margin:0 0 0 4px;line-height:1.6;&quot;&gt;- MODE(): &lt;/p&gt;&lt;hr size=&quot;1&quot;/&gt;&lt;p style=&quot;margin:0 0 0 4px;line-height:1.6;&quot;&gt;+ valueOf(String): MODE&lt;br/&gt;+ values(): MODE[]&lt;/p&gt;" style="verticalAlign=top;align=left;overflow=fill;fontSize=14;fontFamily=Helvetica;html=1;rounded=0;shadow=0;comic=0;labelBackgroundColor=none;strokeWidth=1;" vertex="1" parent="1">
          <mxGeometry x="-155" y="1610" width="259" height="160" as="geometry" />
        </mxCell>
        <mxCell id="N3z-gIHmasYd1JVoCF0x-15" value="&lt;p style=&quot;margin:0px;margin-top:4px;text-align:center;&quot;&gt;&lt;b&gt;Main&lt;/b&gt;&lt;/p&gt;&lt;hr size=&quot;1&quot;/&gt;&lt;p style=&quot;margin:0 0 0 4px;line-height:1.6;&quot;&gt;+ Main(): &lt;/p&gt;&lt;hr size=&quot;1&quot;/&gt;&lt;p style=&quot;margin:0 0 0 4px;line-height:1.6;&quot;&gt;+ switchtoMain(ActionEvent): void&lt;br/&gt;+ start(Stage): void&lt;br/&gt;+ main(String[]): void&lt;/p&gt;" style="verticalAlign=top;align=left;overflow=fill;fontSize=14;fontFamily=Helvetica;html=1;rounded=0;shadow=0;comic=0;labelBackgroundColor=none;strokeWidth=1;" vertex="1" parent="1">
          <mxGeometry x="153" y="2285" width="336" height="196" as="geometry" />
        </mxCell>
        <mxCell id="N3z-gIHmasYd1JVoCF0x-16" value="&lt;p style=&quot;margin:0px;margin-top:4px;text-align:center;&quot;&gt;&lt;b&gt;Menug&lt;/b&gt;&lt;/p&gt;&lt;hr size=&quot;1&quot;/&gt;&lt;p style=&quot;margin:0 0 0 4px;line-height:1.6;&quot;&gt;+ Menug(int): &lt;/p&gt;&lt;hr size=&quot;1&quot;/&gt;&lt;p style=&quot;margin:0 0 0 4px;line-height:1.6;&quot;&gt;+ switchtoMain(ActionEvent): void&lt;br/&gt;+ Getplay(): boolean&lt;/p&gt;" style="verticalAlign=top;align=left;overflow=fill;fontSize=14;fontFamily=Helvetica;html=1;rounded=0;shadow=0;comic=0;labelBackgroundColor=none;strokeWidth=1;" vertex="1" parent="1">
          <mxGeometry x="1331" y="2285" width="336" height="160" as="geometry" />
        </mxCell>
        <mxCell id="N3z-gIHmasYd1JVoCF0x-17" value="&lt;p style=&quot;margin:0px;margin-top:4px;text-align:center;&quot;&gt;&lt;b&gt;Menug&lt;/b&gt;&lt;/p&gt;&lt;hr size=&quot;1&quot;/&gt;&lt;p style=&quot;margin:0 0 0 4px;line-height:1.6;&quot;&gt;+ Menug(int): &lt;/p&gt;&lt;hr size=&quot;1&quot;/&gt;&lt;p style=&quot;margin:0 0 0 4px;line-height:1.6;&quot;&gt;+ switchtoMain(ActionEvent): void&lt;br/&gt;+ Getplay(): boolean&lt;/p&gt;" style="verticalAlign=top;align=left;overflow=fill;fontSize=14;fontFamily=Helvetica;html=1;rounded=0;shadow=0;comic=0;labelBackgroundColor=none;strokeWidth=1;" vertex="1" parent="1">
          <mxGeometry x="1712" y="2285" width="336" height="160" as="geometry" />
        </mxCell>
        <mxCell id="N3z-gIHmasYd1JVoCF0x-18" value="&lt;p style=&quot;margin:0px;margin-top:4px;text-align:center;&quot;&gt;&lt;b&gt;Object&lt;/b&gt;&lt;/p&gt;&lt;hr size=&quot;1&quot;/&gt;&lt;p style=&quot;margin:0 0 0 4px;line-height:1.6;&quot;&gt;+ Object(): &lt;/p&gt;&lt;hr size=&quot;1&quot;/&gt;&lt;p style=&quot;margin:0 0 0 4px;line-height:1.6;&quot;&gt;- searchWord_directory: String&lt;br/&gt;- lightMode: String&lt;br/&gt;- darkMode: String&lt;br/&gt;- darkModeWebView: String&lt;br/&gt;- lightModeWebView: String&lt;br/&gt;- favourite_directory: String&lt;/p&gt;&lt;hr size=&quot;1&quot;/&gt;&lt;p style=&quot;margin:0 0 0 4px;line-height:1.6;&quot;&gt; darkModeWebView: String&lt;br/&gt; favourite_directory: String&lt;br/&gt; lightMode: String&lt;br/&gt; searchWord_directory: String&lt;br/&gt; lightModeWebView: String&lt;br/&gt; darkMode: String&lt;/p&gt;" style="verticalAlign=top;align=left;overflow=fill;fontSize=14;fontFamily=Helvetica;html=1;rounded=0;shadow=0;comic=0;labelBackgroundColor=none;strokeWidth=1;" vertex="1" parent="1">
          <mxGeometry x="1316" y="-21" width="312" height="525" as="geometry" />
        </mxCell>
        <mxCell id="N3z-gIHmasYd1JVoCF0x-19" value="&lt;p style=&quot;margin:0px;margin-top:4px;text-align:center;&quot;&gt;&lt;b&gt;Presentation&lt;/b&gt;&lt;/p&gt;&lt;hr size=&quot;1&quot;/&gt;&lt;p style=&quot;margin:0 0 0 4px;line-height:1.6;&quot;&gt;+ Presentation(): &lt;/p&gt;&lt;hr size=&quot;1&quot;/&gt;&lt;p style=&quot;margin:0 0 0 4px;line-height:1.6;&quot;&gt;+ start(Stage): void&lt;br/&gt;+ main(String[]): void&lt;/p&gt;&lt;hr size=&quot;1&quot;/&gt;&lt;p style=&quot;margin:0 0 0 4px;line-height:1.6;&quot;&gt; stage: Stage&lt;/p&gt;" style="verticalAlign=top;align=left;overflow=fill;fontSize=14;fontFamily=Helvetica;html=1;rounded=0;shadow=0;comic=0;labelBackgroundColor=none;strokeWidth=1;" vertex="1" parent="1">
          <mxGeometry x="2022" y="1972" width="233" height="201" as="geometry" />
        </mxCell>
        <mxCell id="N3z-gIHmasYd1JVoCF0x-20" value="&lt;p style=&quot;margin:0px;margin-top:4px;text-align:center;&quot;&gt;&lt;b&gt;Presentation2&lt;/b&gt;&lt;/p&gt;&lt;hr size=&quot;1&quot;/&gt;&lt;p style=&quot;margin:0 0 0 4px;line-height:1.6;&quot;&gt;+ Presentation2(): &lt;/p&gt;&lt;hr size=&quot;1&quot;/&gt;&lt;p style=&quot;margin:0 0 0 4px;line-height:1.6;&quot;&gt;+ main(String[]): void&lt;br/&gt;+ start(Stage): void&lt;/p&gt;&lt;hr size=&quot;1&quot;/&gt;&lt;p style=&quot;margin:0 0 0 4px;line-height:1.6;&quot;&gt; stage: Stage&lt;/p&gt;" style="verticalAlign=top;align=left;overflow=fill;fontSize=14;fontFamily=Helvetica;html=1;rounded=0;shadow=0;comic=0;labelBackgroundColor=none;strokeWidth=1;" vertex="1" parent="1">
          <mxGeometry x="2300" y="1972" width="233" height="201" as="geometry" />
        </mxCell>
        <mxCell id="N3z-gIHmasYd1JVoCF0x-21" value="&lt;p style=&quot;margin:0px;margin-top:4px;text-align:center;&quot;&gt;&lt;b&gt;QuestionBox&lt;/b&gt;&lt;/p&gt;&lt;hr size=&quot;1&quot;/&gt;&lt;p style=&quot;margin:0 0 0 4px;line-height:1.6;&quot;&gt;+ QuestionBox(String, Color): &lt;/p&gt;" style="verticalAlign=top;align=left;overflow=fill;fontSize=14;fontFamily=Helvetica;html=1;rounded=0;shadow=0;comic=0;labelBackgroundColor=none;strokeWidth=1;" vertex="1" parent="1">
          <mxGeometry x="1170" y="2526" width="301" height="90" as="geometry" />
        </mxCell>
        <mxCell id="N3z-gIHmasYd1JVoCF0x-22" value="&lt;p style=&quot;margin:0px;margin-top:4px;text-align:center;&quot;&gt;&lt;b&gt;RecentLogic&lt;/b&gt;&lt;/p&gt;&lt;hr size=&quot;1&quot;/&gt;&lt;p style=&quot;margin:0 0 0 4px;line-height:1.6;&quot;&gt;- RecentLogic(): &lt;/p&gt;&lt;hr size=&quot;1&quot;/&gt;&lt;p style=&quot;margin:0 0 0 4px;line-height:1.6;&quot;&gt;- instance: RecentLogic&lt;/p&gt;&lt;hr size=&quot;1&quot;/&gt;&lt;p style=&quot;margin:0 0 0 4px;line-height:1.6;&quot;&gt;+ addRecentWord(String): void&lt;/p&gt;&lt;hr size=&quot;1&quot;/&gt;&lt;p style=&quot;margin:0 0 0 4px;line-height:1.6;&quot;&gt; instance: RecentLogic&lt;br/&gt; contentRecent: ObservableList&amp;lt;String&amp;gt;&lt;/p&gt;" style="verticalAlign=top;align=left;overflow=fill;fontSize=14;fontFamily=Helvetica;html=1;rounded=0;shadow=0;comic=0;labelBackgroundColor=none;strokeWidth=1;" vertex="1" parent="1">
          <mxGeometry x="1136" y="1972" width="393" height="242" as="geometry" />
        </mxCell>
        <mxCell id="N3z-gIHmasYd1JVoCF0x-23" value="&lt;p style=&quot;margin:0px;margin-top:4px;text-align:center;&quot;&gt;&lt;b&gt;SearchData&lt;/b&gt;&lt;/p&gt;&lt;hr size=&quot;1&quot;/&gt;&lt;p style=&quot;margin:0 0 0 4px;line-height:1.6;&quot;&gt;+ SearchData(): &lt;/p&gt;&lt;hr size=&quot;1&quot;/&gt;&lt;p style=&quot;margin:0 0 0 4px;line-height:1.6;&quot;&gt;+ getAns(int, int): String&lt;br/&gt;+ getRealAnswer(int): int&lt;br/&gt;+ getPronounceFromCache(String): String&lt;br/&gt;+ getQuestion(int): String&lt;br/&gt;~ processHtml(String): String&lt;/p&gt;" style="verticalAlign=top;align=left;overflow=fill;fontSize=14;fontFamily=Helvetica;html=1;rounded=0;shadow=0;comic=0;labelBackgroundColor=none;strokeWidth=1;" vertex="1" parent="1">
          <mxGeometry x="691" y="1972" width="400" height="268" as="geometry" />
        </mxCell>
        <mxCell id="N3z-gIHmasYd1JVoCF0x-24" value="&lt;p style=&quot;margin:0px;margin-top:4px;text-align:center;&quot;&gt;&lt;b&gt;SearchLogic&lt;/b&gt;&lt;/p&gt;&lt;hr size=&quot;1&quot;/&gt;&lt;p style=&quot;margin:0 0 0 4px;line-height:1.6;&quot;&gt;+ SearchLogic(): &lt;/p&gt;&lt;hr size=&quot;1&quot;/&gt;&lt;p style=&quot;margin:0 0 0 4px;line-height:1.6;&quot;&gt;+ getPronounciation(String): String&lt;br/&gt;+ getPronounceFromCache(String): String&lt;br/&gt;~ processHtml(String): String&lt;br/&gt;+ getHtml(String): String&lt;br/&gt;+ getDetail(String): String&lt;br/&gt;+ getHtmlFromCache(String): String&lt;br/&gt;+ getDescription(String): String&lt;br/&gt;+ getDescriptionFromYourDictionary(String): String&lt;/p&gt;" style="verticalAlign=top;align=left;overflow=fill;fontSize=14;fontFamily=Helvetica;html=1;rounded=0;shadow=0;comic=0;labelBackgroundColor=none;strokeWidth=1;" vertex="1" parent="1">
          <mxGeometry x="153" y="1551" width="474" height="376" as="geometry" />
        </mxCell>
        <mxCell id="N3z-gIHmasYd1JVoCF0x-25" value="&lt;p style=&quot;margin:0px;margin-top:4px;text-align:center;&quot;&gt;&lt;b&gt;Shark&lt;/b&gt;&lt;/p&gt;&lt;hr size=&quot;1&quot;/&gt;&lt;p style=&quot;margin:0 0 0 4px;line-height:1.6;&quot;&gt;+ Shark(): &lt;/p&gt;&lt;hr size=&quot;1&quot;/&gt;&lt;p style=&quot;margin:0 0 0 4px;line-height:1.6;&quot;&gt;+ move(): void&lt;/p&gt;" style="verticalAlign=top;align=left;overflow=fill;fontSize=14;fontFamily=Helvetica;html=1;rounded=0;shadow=0;comic=0;labelBackgroundColor=none;strokeWidth=1;" vertex="1" parent="1">
          <mxGeometry x="435" y="2526" width="176" height="134" as="geometry" />
        </mxCell>
        <mxCell id="N3z-gIHmasYd1JVoCF0x-26" value="&lt;p style=&quot;margin:0px;margin-top:4px;text-align:center;&quot;&gt;&lt;b&gt;SuggestionWordLogic&lt;/b&gt;&lt;/p&gt;&lt;hr size=&quot;1&quot;/&gt;&lt;p style=&quot;margin:0 0 0 4px;line-height:1.6;&quot;&gt;+ SuggestionWordLogic(): &lt;/p&gt;&lt;hr size=&quot;1&quot;/&gt;&lt;p style=&quot;margin:0 0 0 4px;line-height:1.6;&quot;&gt;+ getObservableList(String): ObservableList&amp;lt;String&amp;gt;&lt;br/&gt;+ autoSuggestionUsingTrie(String): ObservableList&amp;lt;String&amp;gt;&lt;/p&gt;" style="verticalAlign=top;align=left;overflow=fill;fontSize=14;fontFamily=Helvetica;html=1;rounded=0;shadow=0;comic=0;labelBackgroundColor=none;strokeWidth=1;" vertex="1" parent="1">
          <mxGeometry x="744" y="2285" width="542" height="160" as="geometry" />
        </mxCell>
        <mxCell id="N3z-gIHmasYd1JVoCF0x-27" value="&lt;p style=&quot;margin:0px;margin-top:4px;text-align:center;&quot;&gt;&lt;b&gt;Trie&lt;/b&gt;&lt;/p&gt;&lt;hr size=&quot;1&quot;/&gt;&lt;p style=&quot;margin:0 0 0 4px;line-height:1.6;&quot;&gt;+ Trie(): &lt;/p&gt;&lt;hr size=&quot;1&quot;/&gt;&lt;p style=&quot;margin:0 0 0 4px;line-height:1.6;&quot;&gt;+ autoComplete(String): ObservableList&amp;lt;String&amp;gt;&lt;br/&gt;- dfs(String, TrieNode, ObservableList&amp;lt;String&amp;gt;): void&lt;br/&gt;~ upperCaseFirstLetter(String): String&lt;br/&gt;+ insertAllWord(): void&lt;br/&gt;+ insertWord(String): void&lt;/p&gt;" style="verticalAlign=top;align=left;overflow=fill;fontSize=14;fontFamily=Helvetica;html=1;rounded=0;shadow=0;comic=0;labelBackgroundColor=none;strokeWidth=1;" vertex="1" parent="1">
          <mxGeometry x="153" y="1972" width="493" height="268" as="geometry" />
        </mxCell>
        <mxCell id="N3z-gIHmasYd1JVoCF0x-28" value="&lt;p style=&quot;margin:0px;margin-top:4px;text-align:center;&quot;&gt;&lt;b&gt;TrieNode&lt;/b&gt;&lt;/p&gt;&lt;hr size=&quot;1&quot;/&gt;&lt;p style=&quot;margin:0 0 0 4px;line-height:1.6;&quot;&gt;~ TrieNode(): &lt;br/&gt;~ TrieNode(Map&amp;lt;Character, TrieNode&amp;gt;, boolean): &lt;/p&gt;" style="verticalAlign=top;align=left;overflow=fill;fontSize=14;fontFamily=Helvetica;html=1;rounded=0;shadow=0;comic=0;labelBackgroundColor=none;strokeWidth=1;" vertex="1" parent="1">
          <mxGeometry x="656" y="2526" width="469" height="129" as="geometry" />
        </mxCell>
        <mxCell id="N3z-gIHmasYd1JVoCF0x-29" value="&lt;p style=&quot;margin:0px;margin-top:4px;text-align:center;&quot;&gt;&lt;b&gt;Txt&lt;/b&gt;&lt;/p&gt;&lt;hr size=&quot;1&quot;/&gt;&lt;p style=&quot;margin:0 0 0 4px;line-height:1.6;&quot;&gt;+ Txt(String): &lt;/p&gt;&lt;hr size=&quot;1&quot;/&gt;&lt;p style=&quot;margin:0 0 0 4px;line-height:1.6;&quot;&gt;+ deleleTextInFile(String): void&lt;br/&gt;+ connect(): void&lt;br/&gt;+ read1(): String&lt;br/&gt;+ write(String): void&lt;br/&gt;+ deleteAll(): void&lt;/p&gt;&lt;hr size=&quot;1&quot;/&gt;&lt;p style=&quot;margin:0 0 0 4px;line-height:1.6;&quot;&gt; contentInFile: ObservableList&amp;lt;String&amp;gt;&lt;/p&gt;" style="verticalAlign=top;align=left;overflow=fill;fontSize=14;fontFamily=Helvetica;html=1;rounded=0;shadow=0;comic=0;labelBackgroundColor=none;strokeWidth=1;" vertex="1" parent="1">
          <mxGeometry x="1624" y="1551" width="379" height="309" as="geometry" />
        </mxCell>
        <mxCell id="N3z-gIHmasYd1JVoCF0x-30" value="&lt;p style=&quot;margin:0px;margin-top:4px;text-align:center;&quot;&gt;&lt;b&gt;WordReader&lt;/b&gt;&lt;/p&gt;&lt;hr size=&quot;1&quot;/&gt;&lt;p style=&quot;margin:0 0 0 4px;line-height:1.6;&quot;&gt;+ WordReader(): &lt;/p&gt;&lt;hr size=&quot;1&quot;/&gt;&lt;p style=&quot;margin:0 0 0 4px;line-height:1.6;&quot;&gt; randomWord: String&lt;/p&gt;" style="verticalAlign=top;align=left;overflow=fill;fontSize=14;fontFamily=Helvetica;html=1;rounded=0;shadow=0;comic=0;labelBackgroundColor=none;strokeWidth=1;" vertex="1" parent="1">
          <mxGeometry x="153" y="2526" width="237" height="134" as="geometry" />
        </mxCell>
        <mxCell id="N3z-gIHmasYd1JVoCF0x-31" value="&lt;p style=&quot;margin:0px;margin-top:4px;text-align:center;&quot;&gt;&lt;b&gt;defBox&lt;/b&gt;&lt;/p&gt;&lt;hr size=&quot;1&quot;/&gt;&lt;p style=&quot;margin:0 0 0 4px;line-height:1.6;&quot;&gt;+ defBox(String, Color): &lt;/p&gt;&lt;hr size=&quot;1&quot;/&gt;&lt;p style=&quot;margin:0 0 0 4px;line-height:1.6;&quot;&gt;- text: Text&lt;/p&gt;&lt;hr size=&quot;1&quot;/&gt;&lt;p style=&quot;margin:0 0 0 4px;line-height:1.6;&quot;&gt;+ show(): void&lt;/p&gt;&lt;hr size=&quot;1&quot;/&gt;&lt;p style=&quot;margin:0 0 0 4px;line-height:1.6;&quot;&gt; text: Text&lt;/p&gt;" style="verticalAlign=top;align=left;overflow=fill;fontSize=14;fontFamily=Helvetica;html=1;rounded=0;shadow=0;comic=0;labelBackgroundColor=none;strokeWidth=1;" vertex="1" parent="1">
          <mxGeometry x="864" y="535" width="255" height="206" as="geometry" />
        </mxCell>
        <mxCell id="N3z-gIHmasYd1JVoCF0x-32" value="&lt;p style=&quot;margin:0px;margin-top:4px;text-align:center;&quot;&gt;&lt;b&gt;test&lt;/b&gt;&lt;/p&gt;&lt;hr size=&quot;1&quot;/&gt;&lt;p style=&quot;margin:0 0 0 4px;line-height:1.6;&quot;&gt;+ test(): &lt;/p&gt;&lt;hr size=&quot;1&quot;/&gt;&lt;p style=&quot;margin:0 0 0 4px;line-height:1.6;&quot;&gt;+ start(Stage): void&lt;br/&gt;+ main(String[]): void&lt;/p&gt;" style="verticalAlign=top;align=left;overflow=fill;fontSize=14;fontFamily=Helvetica;html=1;rounded=0;shadow=0;comic=0;labelBackgroundColor=none;strokeWidth=1;" vertex="1" parent="1">
          <mxGeometry x="2093" y="2285" width="233" height="160" as="geometry" />
        </mxCell>
        <mxCell id="N3z-gIHmasYd1JVoCF0x-33" value="" style="html=1;rounded=1;edgeStyle=orthogonalEdgeStyle;dashed=0;startArrow=none;endArrow=block;endSize=12;strokeColor=#000082;exitX=0.500;exitY=0.000;exitDx=0;exitDy=0;entryX=0.500;entryY=1.000;entryDx=0;entryDy=0;" edge="1" parent="1" source="N3z-gIHmasYd1JVoCF0x-2" target="N3z-gIHmasYd1JVoCF0x-1">
          <mxGeometry width="50" height="50" relative="1" as="geometry">
            <Array as="points">
              <mxPoint x="2239" y="241" />
              <mxPoint x="2426" y="241" />
            </Array>
          </mxGeometry>
        </mxCell>
        <mxCell id="N3z-gIHmasYd1JVoCF0x-34" value="" style="html=1;rounded=1;edgeStyle=orthogonalEdgeStyle;dashed=0;startArrow=none;endArrow=block;endSize=12;strokeColor=#000082;exitX=0.500;exitY=0.000;exitDx=0;exitDy=0;entryX=0.500;entryY=1.000;entryDx=0;entryDy=0;" edge="1" parent="1" source="N3z-gIHmasYd1JVoCF0x-3" target="N3z-gIHmasYd1JVoCF0x-1">
          <mxGeometry width="50" height="50" relative="1" as="geometry">
            <Array as="points">
              <mxPoint x="2613" y="241" />
              <mxPoint x="2426" y="241" />
            </Array>
          </mxGeometry>
        </mxCell>
        <mxCell id="N3z-gIHmasYd1JVoCF0x-35" value="" style="html=1;rounded=1;edgeStyle=orthogonalEdgeStyle;dashed=0;startArrow=circlePlus;startFill=0;endArrow=none;strokeColor=#820000;exitX=0.500;exitY=0.000;exitDx=0;exitDy=0;entryX=0.920;entryY=1.000;entryDx=0;entryDy=0;" edge="1" parent="1" source="N3z-gIHmasYd1JVoCF0x-13" target="N3z-gIHmasYd1JVoCF0x-12">
          <mxGeometry width="50" height="50" relative="1" as="geometry">
            <Array as="points">
              <mxPoint x="1811" y="531" />
              <mxPoint x="1142" y="531" />
            </Array>
          </mxGeometry>
        </mxCell>
        <mxCell id="N3z-gIHmasYd1JVoCF0x-36" value="" style="html=1;rounded=1;edgeStyle=orthogonalEdgeStyle;dashed=0;startArrow=circlePlus;startFill=0;endArrow=none;strokeColor=#820000;exitX=0.500;exitY=0.000;exitDx=0;exitDy=0;entryX=0.000;entryY=0.500;entryDx=0;entryDy=0;" edge="1" parent="1" source="N3z-gIHmasYd1JVoCF0x-14" target="N3z-gIHmasYd1JVoCF0x-6">
          <mxGeometry width="50" height="50" relative="1" as="geometry">
            <Array as="points">
              <mxPoint x="-25" y="638" />
            </Array>
          </mxGeometry>
        </mxCell>
        <mxCell id="N3z-gIHmasYd1JVoCF0x-37" value="" style="html=1;rounded=1;edgeStyle=orthogonalEdgeStyle;dashed=0;startArrow=circlePlus;startFill=0;endArrow=none;strokeColor=#820000;exitX=1.000;exitY=0.500;exitDx=0;exitDy=0;entryX=0.920;entryY=1.000;entryDx=0;entryDy=0;" edge="1" parent="1" source="N3z-gIHmasYd1JVoCF0x-31" target="N3z-gIHmasYd1JVoCF0x-12">
          <mxGeometry width="50" height="50" relative="1" as="geometry">
            <Array as="points">
              <mxPoint x="1557" y="638" />
              <mxPoint x="1557" y="531" />
              <mxPoint x="1142" y="531" />
            </Array>
          </mxGeometry>
        </mxCell>
      </root>
    </mxGraphModel>
  </diagram>
  <diagram id="rE0Q3-5dfAh7njDkU1ZC" name="PackageDiagram">
    <mxGraphModel dx="1434" dy="759" grid="1" gridSize="10" guides="1" tooltips="1" connect="1" arrows="1" fold="1" page="1" pageScale="1" pageWidth="4681" pageHeight="3300" math="0" shadow="0">
      <root>
        <mxCell id="0" />
        <mxCell id="1" parent="0" />
        <mxCell id="eVS_hSraNA0jq0c0pBBF-1" value="com.app.dictionaryapp&lt;br&gt;" style="shape=folder;fontStyle=1;spacingTop=20;tabWidth=150;tabHeight=50;tabPosition=left;html=1;whiteSpace=wrap;strokeColor=#000000;boundedLbl=1;labelInHeader=1;container=1;" parent="1" vertex="1">
          <mxGeometry x="80" y="1040" width="1033.97" height="630" as="geometry" />
        </mxCell>
        <mxCell id="eVS_hSraNA0jq0c0pBBF-3" value="DataAccessLayer" style="shape=folder;fontStyle=1;spacingTop=10;tabWidth=130;tabHeight=20;tabPosition=left;html=1;whiteSpace=wrap;boundedLbl=1;labelInHeader=1;container=1;" parent="eVS_hSraNA0jq0c0pBBF-1" vertex="1">
          <mxGeometry x="780" y="300" width="253.97000000000003" height="270" as="geometry" />
        </mxCell>
        <mxCell id="eVS_hSraNA0jq0c0pBBF-18" value="&lt;p style=&quot;margin:0px;margin-top:4px;text-align:center;&quot;&gt;Cache&lt;/p&gt;" style="verticalAlign=top;align=left;overflow=fill;fontSize=12;fontFamily=Helvetica;html=1;whiteSpace=wrap;strokeColor=default;fontColor=default;fillColor=default;" parent="eVS_hSraNA0jq0c0pBBF-3" vertex="1">
          <mxGeometry x="28.22" y="35.22" width="121.78" height="24.78" as="geometry" />
        </mxCell>
        <mxCell id="eVS_hSraNA0jq0c0pBBF-19" value="&lt;p style=&quot;margin:0px;margin-top:4px;text-align:center;&quot;&gt;Txt&lt;/p&gt;" style="verticalAlign=top;align=left;overflow=fill;fontSize=12;fontFamily=Helvetica;html=1;whiteSpace=wrap;strokeColor=default;fontColor=default;fillColor=default;" parent="eVS_hSraNA0jq0c0pBBF-3" vertex="1">
          <mxGeometry x="28.218888888888888" y="187.82608695652175" width="183.42277777777778" height="58.69565217391305" as="geometry" />
        </mxCell>
        <mxCell id="C6Srng2_KDSBYAjySElE-8" value="Database" style="rounded=0;whiteSpace=wrap;html=1;" vertex="1" parent="eVS_hSraNA0jq0c0pBBF-3">
          <mxGeometry x="59.930755679611686" y="105.65217391304348" width="119.9987702265372" height="70.43478260869566" as="geometry" />
        </mxCell>
        <mxCell id="C6Srng2_KDSBYAjySElE-9" value="Object" style="rounded=0;whiteSpace=wrap;html=1;" vertex="1" parent="eVS_hSraNA0jq0c0pBBF-3">
          <mxGeometry x="160" y="45.65" width="83.97" height="44.35" as="geometry" />
        </mxCell>
        <mxCell id="eVS_hSraNA0jq0c0pBBF-4" value="PresentationLayer" style="shape=folder;fontStyle=1;spacingTop=10;tabWidth=130;tabHeight=30;tabPosition=left;html=1;whiteSpace=wrap;boundedLbl=1;labelInHeader=1;container=1;" parent="eVS_hSraNA0jq0c0pBBF-1" vertex="1">
          <mxGeometry x="155.20547945205482" y="90" width="479.7260273972603" height="150" as="geometry" />
        </mxCell>
        <mxCell id="eVS_hSraNA0jq0c0pBBF-12" value="&lt;p style=&quot;margin:0px;margin-top:4px;text-align:center;&quot;&gt;&lt;br&gt;&lt;b&gt;Presentation&lt;/b&gt;&lt;/p&gt;" style="verticalAlign=top;align=left;overflow=fill;fontSize=12;fontFamily=Helvetica;html=1;whiteSpace=wrap;strokeColor=default;fontColor=default;fillColor=default;" parent="eVS_hSraNA0jq0c0pBBF-4" vertex="1">
          <mxGeometry x="34.26965929048121" y="64.28571428571428" width="150.2403512469266" height="53.57142857142857" as="geometry" />
        </mxCell>
        <mxCell id="C6Srng2_KDSBYAjySElE-7" value="&lt;b&gt;Presentation2&lt;/b&gt;" style="rounded=0;whiteSpace=wrap;html=1;" vertex="1" parent="eVS_hSraNA0jq0c0pBBF-4">
          <mxGeometry x="294.7945205479452" y="64.28999999999996" width="120" height="60" as="geometry" />
        </mxCell>
        <mxCell id="eVS_hSraNA0jq0c0pBBF-11" value="" style="endArrow=open;endFill=1;endSize=12;html=1;rounded=0;fontFamily=Helvetica;fontSize=12;fontColor=default;exitX=0.321;exitY=1.046;exitDx=0;exitDy=0;exitPerimeter=0;entryX=0.391;entryY=0.167;entryDx=0;entryDy=0;entryPerimeter=0;" parent="eVS_hSraNA0jq0c0pBBF-1" source="eVS_hSraNA0jq0c0pBBF-4" target="eVS_hSraNA0jq0c0pBBF-7" edge="1">
          <mxGeometry width="160" relative="1" as="geometry">
            <mxPoint x="352.7397260273973" y="280" as="sourcePoint" />
            <mxPoint x="578.4931506849315" y="280" as="targetPoint" />
          </mxGeometry>
        </mxCell>
        <mxCell id="eVS_hSraNA0jq0c0pBBF-16" value="Data" style="endArrow=open;endSize=12;dashed=1;html=1;rounded=0;fontFamily=Helvetica;fontSize=12;fontColor=default;entryX=0;entryY=0.261;entryDx=0;entryDy=0;entryPerimeter=0;" parent="eVS_hSraNA0jq0c0pBBF-1" target="eVS_hSraNA0jq0c0pBBF-3" edge="1">
          <mxGeometry width="160" relative="1" as="geometry">
            <mxPoint x="634.9315068493152" y="360" as="sourcePoint" />
            <mxPoint x="578.4931506849315" y="280" as="targetPoint" />
          </mxGeometry>
        </mxCell>
        <mxCell id="eVS_hSraNA0jq0c0pBBF-17" value="Data" style="endArrow=open;endSize=12;dashed=1;html=1;rounded=0;fontFamily=Helvetica;fontSize=12;fontColor=default;exitX=0;exitY=0.348;exitDx=0;exitDy=0;exitPerimeter=0;" parent="eVS_hSraNA0jq0c0pBBF-1" source="eVS_hSraNA0jq0c0pBBF-3" edge="1">
          <mxGeometry width="160" relative="1" as="geometry">
            <mxPoint x="352.7397260273973" y="280" as="sourcePoint" />
            <mxPoint x="634.9315068493152" y="380" as="targetPoint" />
          </mxGeometry>
        </mxCell>
        <mxCell id="eVS_hSraNA0jq0c0pBBF-2" value="BusinessLogicLayer" style="shape=folder;fontStyle=1;spacingTop=10;tabWidth=130;tabHeight=30;tabPosition=left;html=1;whiteSpace=wrap;boundedLbl=1;labelInHeader=1;container=1;" parent="eVS_hSraNA0jq0c0pBBF-1" vertex="1">
          <mxGeometry y="270" width="685.89" height="350" as="geometry" />
        </mxCell>
        <mxCell id="eVS_hSraNA0jq0c0pBBF-6" value="&lt;p style=&quot;margin:0px;margin-top:4px;text-align:center;&quot;&gt;&lt;br&gt;&lt;b&gt;AudioLogic&lt;/b&gt;&lt;/p&gt;" style="verticalAlign=top;align=left;overflow=fill;fontSize=12;fontFamily=Helvetica;html=1;whiteSpace=wrap;strokeColor=default;fontColor=default;fillColor=default;" parent="eVS_hSraNA0jq0c0pBBF-2" vertex="1">
          <mxGeometry x="20.929511769834356" y="210" width="188.3656059285092" height="85.904" as="geometry" />
        </mxCell>
        <mxCell id="eVS_hSraNA0jq0c0pBBF-7" value="&lt;p style=&quot;margin:0px;margin-top:4px;text-align:center;&quot;&gt;&lt;br&gt;&lt;b&gt;BusinessLogic&lt;/b&gt;&lt;/p&gt;" style="verticalAlign=top;align=left;overflow=fill;fontSize=12;fontFamily=Helvetica;html=1;whiteSpace=wrap;strokeColor=default;fontColor=default;fillColor=default;" parent="eVS_hSraNA0jq0c0pBBF-2" vertex="1">
          <mxGeometry x="209.29511769834355" y="70" width="198.83036181342638" height="84" as="geometry" />
        </mxCell>
        <mxCell id="eVS_hSraNA0jq0c0pBBF-9" value="&lt;p style=&quot;margin:0px;margin-top:4px;text-align:center;&quot;&gt;&lt;br&gt;&lt;b&gt;SearchLogic&lt;/b&gt;&lt;/p&gt;" style="verticalAlign=top;align=left;overflow=fill;fontSize=12;fontFamily=Helvetica;html=1;whiteSpace=wrap;strokeColor=default;fontColor=default;fillColor=default;" parent="eVS_hSraNA0jq0c0pBBF-2" vertex="1">
          <mxGeometry x="241.28497945945946" y="210" width="166.83810810810814" height="84" as="geometry" />
        </mxCell>
        <mxCell id="eVS_hSraNA0jq0c0pBBF-10" value="&lt;p style=&quot;margin:0px;margin-top:4px;text-align:center;&quot;&gt;&lt;b&gt;APITextToSpeech&lt;/b&gt;&lt;/p&gt;" style="verticalAlign=top;align=left;overflow=fill;fontSize=12;fontFamily=Helvetica;html=1;whiteSpace=wrap;strokeColor=default;fontColor=default;fillColor=default;" parent="eVS_hSraNA0jq0c0pBBF-2" vertex="1">
          <mxGeometry x="560" y="210" width="107.35" height="75.1" as="geometry" />
        </mxCell>
        <mxCell id="UJ4gvEXK-YdewuSnWPvD-1" value="" style="endArrow=diamondThin;endFill=1;endSize=24;html=1;rounded=0;fontFamily=Helvetica;fontSize=12;fontColor=default;exitX=0.5;exitY=0;exitDx=0;exitDy=0;" parent="eVS_hSraNA0jq0c0pBBF-2" source="eVS_hSraNA0jq0c0pBBF-6" target="eVS_hSraNA0jq0c0pBBF-7" edge="1">
          <mxGeometry width="160" relative="1" as="geometry">
            <mxPoint x="315.13864864864865" y="-266" as="sourcePoint" />
            <mxPoint x="611.7397297297299" y="-266" as="targetPoint" />
          </mxGeometry>
        </mxCell>
        <mxCell id="UJ4gvEXK-YdewuSnWPvD-2" value="" style="endArrow=diamondThin;endFill=1;endSize=24;html=1;rounded=0;fontFamily=Helvetica;fontSize=12;fontColor=default;" parent="eVS_hSraNA0jq0c0pBBF-2" source="eVS_hSraNA0jq0c0pBBF-9" target="eVS_hSraNA0jq0c0pBBF-7" edge="1">
          <mxGeometry width="160" relative="1" as="geometry">
            <mxPoint x="315.13864864864865" y="-266" as="sourcePoint" />
            <mxPoint x="611.7397297297299" y="-266" as="targetPoint" />
          </mxGeometry>
        </mxCell>
        <mxCell id="UJ4gvEXK-YdewuSnWPvD-3" value="" style="endArrow=diamondThin;endFill=1;endSize=24;html=1;rounded=0;fontFamily=Helvetica;fontSize=12;fontColor=default;entryX=1;entryY=1;entryDx=0;entryDy=0;exitX=0.183;exitY=0.037;exitDx=0;exitDy=0;exitPerimeter=0;" parent="eVS_hSraNA0jq0c0pBBF-2" source="eVS_hSraNA0jq0c0pBBF-10" target="eVS_hSraNA0jq0c0pBBF-7" edge="1">
          <mxGeometry width="160" relative="1" as="geometry">
            <mxPoint x="315.13864864864865" y="-266" as="sourcePoint" />
            <mxPoint x="611.7397297297299" y="-266" as="targetPoint" />
          </mxGeometry>
        </mxCell>
        <mxCell id="C6Srng2_KDSBYAjySElE-1" value="&lt;p style=&quot;margin:0px;margin-top:4px;text-align:center;&quot;&gt;&lt;b&gt;APITextTranslate&lt;/b&gt;&lt;/p&gt;" style="verticalAlign=top;align=left;overflow=fill;fontSize=12;fontFamily=Helvetica;html=1;whiteSpace=wrap;strokeColor=default;fontColor=default;fillColor=default;" vertex="1" parent="eVS_hSraNA0jq0c0pBBF-2">
          <mxGeometry x="463.44" y="100.36" width="106.56" height="53.64" as="geometry" />
        </mxCell>
        <mxCell id="C6Srng2_KDSBYAjySElE-2" value="" style="endArrow=diamondThin;endFill=1;endSize=24;html=1;rounded=0;fontFamily=Helvetica;fontSize=12;fontColor=default;entryX=1;entryY=1;entryDx=0;entryDy=0;exitX=0;exitY=0.5;exitDx=0;exitDy=0;" edge="1" parent="eVS_hSraNA0jq0c0pBBF-2" source="C6Srng2_KDSBYAjySElE-1">
          <mxGeometry width="160" relative="1" as="geometry">
            <mxPoint x="444.90162162162153" y="108.76999999999975" as="sourcePoint" />
            <mxPoint x="405.4701088636365" y="145.58999999999992" as="targetPoint" />
          </mxGeometry>
        </mxCell>
        <mxCell id="C6Srng2_KDSBYAjySElE-3" value="&lt;b&gt;RecentLogic&lt;/b&gt;" style="rounded=0;whiteSpace=wrap;html=1;" vertex="1" parent="eVS_hSraNA0jq0c0pBBF-2">
          <mxGeometry y="97.18" width="100" height="60" as="geometry" />
        </mxCell>
        <mxCell id="C6Srng2_KDSBYAjySElE-4" value="&lt;b&gt;FavouriteLogic&lt;/b&gt;" style="rounded=0;whiteSpace=wrap;html=1;" vertex="1" parent="eVS_hSraNA0jq0c0pBBF-2">
          <mxGeometry x="450" y="37.180000000000064" width="120" height="60" as="geometry" />
        </mxCell>
        <mxCell id="C6Srng2_KDSBYAjySElE-5" value="&lt;b&gt;SuggestionWordLogic&lt;/b&gt;" style="rounded=0;whiteSpace=wrap;html=1;" vertex="1" parent="eVS_hSraNA0jq0c0pBBF-2">
          <mxGeometry x="70" y="30" width="130" height="50" as="geometry" />
        </mxCell>
        <mxCell id="C6Srng2_KDSBYAjySElE-6" value="&lt;b&gt;Trie&lt;/b&gt;" style="rounded=0;whiteSpace=wrap;html=1;" vertex="1" parent="eVS_hSraNA0jq0c0pBBF-2">
          <mxGeometry x="430" y="225.0999999999999" width="120" height="60" as="geometry" />
        </mxCell>
      </root>
    </mxGraphModel>
  </diagram>
  <diagram id="7znmJvnXFxUAAf8eh69I" name="MVC Architecture">
    <mxGraphModel dx="1434" dy="759" grid="1" gridSize="10" guides="1" tooltips="1" connect="1" arrows="1" fold="1" page="1" pageScale="1" pageWidth="4681" pageHeight="3300" math="0" shadow="0">
      <root>
        <mxCell id="0" />
        <mxCell id="1" parent="0" />
        <mxCell id="nnIfsTHLkRZSyvxDKiyK-1" value="" style="shape=image;verticalLabelPosition=bottom;labelBackgroundColor=default;verticalAlign=top;aspect=fixed;imageAspect=0;image=https://media.geeksforgeeks.org/wp-content/uploads/20220224160807/Model1.png;" parent="1" vertex="1">
          <mxGeometry x="450" y="200" width="585" height="390" as="geometry" />
        </mxCell>
      </root>
    </mxGraphModel>
  </diagram>
  <diagram id="YWehRKD_lfo0N6DCPxb7" name="UseCaseDiagram">
    <mxGraphModel dx="1434" dy="759" grid="1" gridSize="10" guides="1" tooltips="1" connect="1" arrows="1" fold="1" page="1" pageScale="1" pageWidth="4681" pageHeight="3300" math="0" shadow="0">
      <root>
        <mxCell id="0" />
        <mxCell id="1" parent="0" />
        <mxCell id="FiJX1O4iJPS-SRSWJ48n-1" value="Actor" style="shape=umlActor;verticalLabelPosition=bottom;verticalAlign=top;html=1;strokeColor=default;fontFamily=Helvetica;fontSize=12;fontColor=default;fillColor=default;" parent="1" vertex="1">
          <mxGeometry x="240" y="370" width="30" height="60" as="geometry" />
        </mxCell>
        <mxCell id="FiJX1O4iJPS-SRSWJ48n-12" value="UI" style="swimlane;whiteSpace=wrap;html=1;strokeColor=default;fontFamily=Helvetica;fontSize=12;fontColor=default;fillColor=default;" parent="1" vertex="1">
          <mxGeometry x="390" y="70" width="680" height="1050" as="geometry" />
        </mxCell>
        <mxCell id="FiJX1O4iJPS-SRSWJ48n-6" value="Click Recent Button" style="ellipse;whiteSpace=wrap;html=1;strokeColor=default;fontFamily=Helvetica;fontSize=12;fontColor=default;fillColor=default;" parent="FiJX1O4iJPS-SRSWJ48n-12" vertex="1">
          <mxGeometry x="145" y="70" width="140" height="70" as="geometry" />
        </mxCell>
        <mxCell id="FiJX1O4iJPS-SRSWJ48n-7" value="Click Games Button" style="ellipse;whiteSpace=wrap;html=1;strokeColor=default;fontFamily=Helvetica;fontSize=12;fontColor=default;fillColor=default;" parent="FiJX1O4iJPS-SRSWJ48n-12" vertex="1">
          <mxGeometry x="150" y="160" width="140" height="70" as="geometry" />
        </mxCell>
        <mxCell id="FiJX1O4iJPS-SRSWJ48n-8" value="Click Daily Button" style="ellipse;whiteSpace=wrap;html=1;strokeColor=default;fontFamily=Helvetica;fontSize=12;fontColor=default;fillColor=default;" parent="FiJX1O4iJPS-SRSWJ48n-12" vertex="1">
          <mxGeometry x="145" y="240" width="140" height="70" as="geometry" />
        </mxCell>
        <mxCell id="FiJX1O4iJPS-SRSWJ48n-9" value="Click Favorites Button" style="ellipse;whiteSpace=wrap;html=1;strokeColor=default;fontFamily=Helvetica;fontSize=12;fontColor=default;fillColor=default;" parent="FiJX1O4iJPS-SRSWJ48n-12" vertex="1">
          <mxGeometry x="145" y="330" width="140" height="70" as="geometry" />
        </mxCell>
        <mxCell id="FiJX1O4iJPS-SRSWJ48n-10" value="Click Edit Button" style="ellipse;whiteSpace=wrap;html=1;strokeColor=default;fontFamily=Helvetica;fontSize=12;fontColor=default;fillColor=default;" parent="FiJX1O4iJPS-SRSWJ48n-12" vertex="1">
          <mxGeometry x="145" y="420" width="140" height="70" as="geometry" />
        </mxCell>
        <mxCell id="FiJX1O4iJPS-SRSWJ48n-5" value="Translate Word" style="ellipse;whiteSpace=wrap;html=1;strokeColor=default;fontFamily=Helvetica;fontSize=12;fontColor=default;fillColor=default;" parent="FiJX1O4iJPS-SRSWJ48n-12" vertex="1">
          <mxGeometry x="140" y="510" width="140" height="70" as="geometry" />
        </mxCell>
        <mxCell id="FiJX1O4iJPS-SRSWJ48n-14" value="Search Action" style="ellipse;whiteSpace=wrap;html=1;strokeColor=default;fontFamily=Helvetica;fontSize=12;fontColor=default;fillColor=default;" parent="FiJX1O4iJPS-SRSWJ48n-12" vertex="1">
          <mxGeometry x="350" y="420" width="140" height="70" as="geometry" />
        </mxCell>
        <mxCell id="FiJX1O4iJPS-SRSWJ48n-15" value="Click Voice Button" style="ellipse;whiteSpace=wrap;html=1;strokeColor=default;fontFamily=Helvetica;fontSize=12;fontColor=default;fillColor=default;" parent="FiJX1O4iJPS-SRSWJ48n-12" vertex="1">
          <mxGeometry x="145" y="620" width="140" height="70" as="geometry" />
        </mxCell>
        <mxCell id="FiJX1O4iJPS-SRSWJ48n-16" value="Click Setting Button" style="ellipse;whiteSpace=wrap;html=1;strokeColor=default;fontFamily=Helvetica;fontSize=12;fontColor=default;fillColor=default;" parent="FiJX1O4iJPS-SRSWJ48n-12" vertex="1">
          <mxGeometry x="140" y="730" width="140" height="70" as="geometry" />
        </mxCell>
        <mxCell id="FiJX1O4iJPS-SRSWJ48n-17" value="Click Game 1" style="ellipse;whiteSpace=wrap;html=1;strokeColor=default;fontFamily=Helvetica;fontSize=12;fontColor=default;fillColor=default;" parent="FiJX1O4iJPS-SRSWJ48n-12" vertex="1">
          <mxGeometry x="400" y="130" width="140" height="70" as="geometry" />
        </mxCell>
        <mxCell id="FiJX1O4iJPS-SRSWJ48n-18" value="Click Game 2" style="ellipse;whiteSpace=wrap;html=1;strokeColor=default;fontFamily=Helvetica;fontSize=12;fontColor=default;fillColor=default;" parent="FiJX1O4iJPS-SRSWJ48n-12" vertex="1">
          <mxGeometry x="400" y="230" width="140" height="70" as="geometry" />
        </mxCell>
        <mxCell id="FiJX1O4iJPS-SRSWJ48n-19" value="&amp;lt;&amp;lt;extend&amp;gt;&amp;gt;" style="html=1;verticalAlign=bottom;labelBackgroundColor=none;endArrow=open;endFill=0;dashed=1;rounded=0;fontFamily=Helvetica;fontSize=12;fontColor=default;entryX=0;entryY=0.5;entryDx=0;entryDy=0;exitX=1;exitY=0.5;exitDx=0;exitDy=0;" parent="FiJX1O4iJPS-SRSWJ48n-12" source="FiJX1O4iJPS-SRSWJ48n-7" target="FiJX1O4iJPS-SRSWJ48n-17" edge="1">
          <mxGeometry width="160" relative="1" as="geometry">
            <mxPoint x="250" y="550" as="sourcePoint" />
            <mxPoint x="410" y="550" as="targetPoint" />
          </mxGeometry>
        </mxCell>
        <mxCell id="FiJX1O4iJPS-SRSWJ48n-20" value="&amp;lt;&amp;lt;extend&amp;gt;&amp;gt;" style="html=1;verticalAlign=bottom;labelBackgroundColor=none;endArrow=open;endFill=0;dashed=1;rounded=0;fontFamily=Helvetica;fontSize=12;fontColor=default;entryX=0;entryY=0;entryDx=0;entryDy=0;exitX=0.964;exitY=0.736;exitDx=0;exitDy=0;exitPerimeter=0;" parent="FiJX1O4iJPS-SRSWJ48n-12" source="FiJX1O4iJPS-SRSWJ48n-7" target="FiJX1O4iJPS-SRSWJ48n-18" edge="1">
          <mxGeometry width="160" relative="1" as="geometry">
            <mxPoint x="250" y="550" as="sourcePoint" />
            <mxPoint x="410" y="550" as="targetPoint" />
          </mxGeometry>
        </mxCell>
        <mxCell id="FiJX1O4iJPS-SRSWJ48n-21" value="Type Word In TextField" style="ellipse;whiteSpace=wrap;html=1;strokeColor=default;fontFamily=Helvetica;fontSize=12;fontColor=default;fillColor=default;" parent="FiJX1O4iJPS-SRSWJ48n-12" vertex="1">
          <mxGeometry x="390" y="510" width="140" height="70" as="geometry" />
        </mxCell>
        <mxCell id="FiJX1O4iJPS-SRSWJ48n-23" value="&amp;lt;&amp;lt;include&amp;gt;&amp;gt;" style="html=1;verticalAlign=bottom;labelBackgroundColor=none;endArrow=open;endFill=0;dashed=1;rounded=0;fontFamily=Helvetica;fontSize=12;fontColor=default;entryX=0;entryY=0.5;entryDx=0;entryDy=0;exitX=1;exitY=1;exitDx=0;exitDy=0;" parent="FiJX1O4iJPS-SRSWJ48n-12" source="FiJX1O4iJPS-SRSWJ48n-5" target="FiJX1O4iJPS-SRSWJ48n-21" edge="1">
          <mxGeometry width="160" relative="1" as="geometry">
            <mxPoint x="260" y="580" as="sourcePoint" />
            <mxPoint x="420" y="580" as="targetPoint" />
          </mxGeometry>
        </mxCell>
        <mxCell id="FiJX1O4iJPS-SRSWJ48n-24" value="&amp;lt;&amp;lt;include&amp;gt;&amp;gt;" style="html=1;verticalAlign=bottom;labelBackgroundColor=none;endArrow=open;endFill=0;dashed=1;rounded=0;fontFamily=Helvetica;fontSize=12;fontColor=default;entryX=0.007;entryY=0.636;entryDx=0;entryDy=0;entryPerimeter=0;exitX=1;exitY=0.5;exitDx=0;exitDy=0;" parent="FiJX1O4iJPS-SRSWJ48n-12" source="FiJX1O4iJPS-SRSWJ48n-5" target="FiJX1O4iJPS-SRSWJ48n-14" edge="1">
          <mxGeometry width="160" relative="1" as="geometry">
            <mxPoint x="260" y="580" as="sourcePoint" />
            <mxPoint x="420" y="580" as="targetPoint" />
          </mxGeometry>
        </mxCell>
        <mxCell id="FiJX1O4iJPS-SRSWJ48n-25" value="Enter" style="ellipse;whiteSpace=wrap;html=1;strokeColor=default;fontFamily=Helvetica;fontSize=12;fontColor=default;fillColor=default;" parent="FiJX1O4iJPS-SRSWJ48n-12" vertex="1">
          <mxGeometry x="510" y="320" width="140" height="70" as="geometry" />
        </mxCell>
        <mxCell id="FiJX1O4iJPS-SRSWJ48n-26" value="Click Search Button" style="ellipse;whiteSpace=wrap;html=1;strokeColor=default;fontFamily=Helvetica;fontSize=12;fontColor=default;fillColor=default;" parent="FiJX1O4iJPS-SRSWJ48n-12" vertex="1">
          <mxGeometry x="520" y="430" width="140" height="70" as="geometry" />
        </mxCell>
        <mxCell id="FiJX1O4iJPS-SRSWJ48n-27" value="&amp;lt;&amp;lt;extend&amp;gt;&amp;gt;" style="html=1;verticalAlign=bottom;labelBackgroundColor=none;endArrow=open;endFill=0;dashed=1;rounded=0;fontFamily=Helvetica;fontSize=12;fontColor=default;entryX=0;entryY=0.5;entryDx=0;entryDy=0;" parent="FiJX1O4iJPS-SRSWJ48n-12" source="FiJX1O4iJPS-SRSWJ48n-14" target="FiJX1O4iJPS-SRSWJ48n-25" edge="1">
          <mxGeometry width="160" relative="1" as="geometry">
            <mxPoint x="260" y="320" as="sourcePoint" />
            <mxPoint x="420" y="320" as="targetPoint" />
          </mxGeometry>
        </mxCell>
        <mxCell id="FiJX1O4iJPS-SRSWJ48n-28" value="&amp;lt;&amp;lt;extend&amp;gt;&amp;gt;" style="html=1;verticalAlign=bottom;labelBackgroundColor=none;endArrow=open;endFill=0;dashed=1;rounded=0;fontFamily=Helvetica;fontSize=12;fontColor=default;entryX=0;entryY=0.5;entryDx=0;entryDy=0;exitX=0.921;exitY=0.779;exitDx=0;exitDy=0;exitPerimeter=0;" parent="FiJX1O4iJPS-SRSWJ48n-12" source="FiJX1O4iJPS-SRSWJ48n-14" target="FiJX1O4iJPS-SRSWJ48n-26" edge="1">
          <mxGeometry width="160" relative="1" as="geometry">
            <mxPoint x="260" y="320" as="sourcePoint" />
            <mxPoint x="420" y="320" as="targetPoint" />
          </mxGeometry>
        </mxCell>
        <mxCell id="FiJX1O4iJPS-SRSWJ48n-37" value="Click Sound Button" style="ellipse;whiteSpace=wrap;html=1;strokeColor=default;fontFamily=Helvetica;fontSize=12;fontColor=default;fillColor=default;" parent="FiJX1O4iJPS-SRSWJ48n-12" vertex="1">
          <mxGeometry x="400" y="600" width="140" height="70" as="geometry" />
        </mxCell>
        <mxCell id="FiJX1O4iJPS-SRSWJ48n-38" value="Click Star Button" style="ellipse;whiteSpace=wrap;html=1;strokeColor=default;fontFamily=Helvetica;fontSize=12;fontColor=default;fillColor=default;" parent="FiJX1O4iJPS-SRSWJ48n-12" vertex="1">
          <mxGeometry x="400" y="690" width="140" height="70" as="geometry" />
        </mxCell>
        <mxCell id="FiJX1O4iJPS-SRSWJ48n-39" value="&amp;lt;&amp;lt;extend&amp;gt;&amp;gt;" style="edgeStyle=none;html=1;startArrow=open;endArrow=none;startSize=12;verticalAlign=bottom;dashed=1;labelBackgroundColor=none;rounded=0;fontFamily=Helvetica;fontSize=12;fontColor=default;entryX=1;entryY=1;entryDx=0;entryDy=0;exitX=0.086;exitY=0.164;exitDx=0;exitDy=0;exitPerimeter=0;" parent="FiJX1O4iJPS-SRSWJ48n-12" source="FiJX1O4iJPS-SRSWJ48n-37" target="FiJX1O4iJPS-SRSWJ48n-5" edge="1">
          <mxGeometry x="-0.2935" y="-7" width="160" relative="1" as="geometry">
            <mxPoint x="260" y="590" as="sourcePoint" />
            <mxPoint x="420" y="590" as="targetPoint" />
            <mxPoint as="offset" />
          </mxGeometry>
        </mxCell>
        <mxCell id="FiJX1O4iJPS-SRSWJ48n-40" value="&amp;lt;&amp;lt;extend&amp;gt;&amp;gt;" style="edgeStyle=none;html=1;startArrow=open;endArrow=none;startSize=12;verticalAlign=bottom;dashed=1;labelBackgroundColor=none;rounded=0;fontFamily=Helvetica;fontSize=12;fontColor=default;entryX=1;entryY=1;entryDx=0;entryDy=0;exitX=0.071;exitY=0.279;exitDx=0;exitDy=0;exitPerimeter=0;" parent="FiJX1O4iJPS-SRSWJ48n-12" source="FiJX1O4iJPS-SRSWJ48n-38" target="FiJX1O4iJPS-SRSWJ48n-5" edge="1">
          <mxGeometry x="-0.1114" y="-10" width="160" relative="1" as="geometry">
            <mxPoint x="260" y="590" as="sourcePoint" />
            <mxPoint x="420" y="590" as="targetPoint" />
            <mxPoint as="offset" />
          </mxGeometry>
        </mxCell>
        <mxCell id="FiJX1O4iJPS-SRSWJ48n-29" value="" style="endArrow=classic;html=1;rounded=0;fontFamily=Helvetica;fontSize=12;fontColor=default;exitX=1;exitY=0.3333333333333333;exitDx=0;exitDy=0;exitPerimeter=0;entryX=0.014;entryY=0.621;entryDx=0;entryDy=0;entryPerimeter=0;" parent="1" source="FiJX1O4iJPS-SRSWJ48n-1" target="FiJX1O4iJPS-SRSWJ48n-6" edge="1">
          <mxGeometry width="50" height="50" relative="1" as="geometry">
            <mxPoint x="700" y="280" as="sourcePoint" />
            <mxPoint x="750" y="230" as="targetPoint" />
          </mxGeometry>
        </mxCell>
        <mxCell id="FiJX1O4iJPS-SRSWJ48n-30" value="" style="endArrow=classic;html=1;rounded=0;fontFamily=Helvetica;fontSize=12;fontColor=default;entryX=0.007;entryY=0.679;entryDx=0;entryDy=0;entryPerimeter=0;" parent="1" target="FiJX1O4iJPS-SRSWJ48n-7" edge="1">
          <mxGeometry width="50" height="50" relative="1" as="geometry">
            <mxPoint x="270" y="390" as="sourcePoint" />
            <mxPoint x="750" y="230" as="targetPoint" />
          </mxGeometry>
        </mxCell>
        <mxCell id="FiJX1O4iJPS-SRSWJ48n-31" value="" style="endArrow=classic;html=1;rounded=0;fontFamily=Helvetica;fontSize=12;fontColor=default;entryX=0;entryY=0.5;entryDx=0;entryDy=0;" parent="1" target="FiJX1O4iJPS-SRSWJ48n-8" edge="1">
          <mxGeometry width="50" height="50" relative="1" as="geometry">
            <mxPoint x="270" y="390" as="sourcePoint" />
            <mxPoint x="750" y="230" as="targetPoint" />
          </mxGeometry>
        </mxCell>
        <mxCell id="FiJX1O4iJPS-SRSWJ48n-32" value="" style="endArrow=classic;html=1;rounded=0;fontFamily=Helvetica;fontSize=12;fontColor=default;entryX=0.014;entryY=0.264;entryDx=0;entryDy=0;entryPerimeter=0;" parent="1" target="FiJX1O4iJPS-SRSWJ48n-5" edge="1">
          <mxGeometry width="50" height="50" relative="1" as="geometry">
            <mxPoint x="270" y="390" as="sourcePoint" />
            <mxPoint x="350" y="500" as="targetPoint" />
          </mxGeometry>
        </mxCell>
        <mxCell id="FiJX1O4iJPS-SRSWJ48n-33" value="" style="endArrow=classic;html=1;rounded=0;fontFamily=Helvetica;fontSize=12;fontColor=default;entryX=0;entryY=0.5;entryDx=0;entryDy=0;" parent="1" target="FiJX1O4iJPS-SRSWJ48n-10" edge="1">
          <mxGeometry width="50" height="50" relative="1" as="geometry">
            <mxPoint x="270" y="390" as="sourcePoint" />
            <mxPoint x="750" y="230" as="targetPoint" />
          </mxGeometry>
        </mxCell>
        <mxCell id="FiJX1O4iJPS-SRSWJ48n-34" value="" style="endArrow=classic;html=1;rounded=0;fontFamily=Helvetica;fontSize=12;fontColor=default;exitX=1;exitY=0.3333333333333333;exitDx=0;exitDy=0;exitPerimeter=0;entryX=0;entryY=0.5;entryDx=0;entryDy=0;" parent="1" source="FiJX1O4iJPS-SRSWJ48n-1" target="FiJX1O4iJPS-SRSWJ48n-9" edge="1">
          <mxGeometry width="50" height="50" relative="1" as="geometry">
            <mxPoint x="700" y="280" as="sourcePoint" />
            <mxPoint x="750" y="230" as="targetPoint" />
          </mxGeometry>
        </mxCell>
        <mxCell id="FiJX1O4iJPS-SRSWJ48n-35" value="" style="endArrow=classic;html=1;rounded=0;fontFamily=Helvetica;fontSize=12;fontColor=default;entryX=0.036;entryY=0.3;entryDx=0;entryDy=0;entryPerimeter=0;" parent="1" target="FiJX1O4iJPS-SRSWJ48n-16" edge="1">
          <mxGeometry width="50" height="50" relative="1" as="geometry">
            <mxPoint x="270" y="390" as="sourcePoint" />
            <mxPoint x="320" y="540" as="targetPoint" />
          </mxGeometry>
        </mxCell>
        <mxCell id="FiJX1O4iJPS-SRSWJ48n-36" value="" style="endArrow=classic;html=1;rounded=0;fontFamily=Helvetica;fontSize=12;fontColor=default;" parent="1" target="FiJX1O4iJPS-SRSWJ48n-15" edge="1">
          <mxGeometry width="50" height="50" relative="1" as="geometry">
            <mxPoint x="270" y="390" as="sourcePoint" />
            <mxPoint x="750" y="570" as="targetPoint" />
          </mxGeometry>
        </mxCell>
      </root>
    </mxGraphModel>
  </diagram>
  <diagram id="eNF-KugxB07XN8Se8wQm" name="ERD">
    <mxGraphModel dx="1434" dy="759" grid="1" gridSize="10" guides="1" tooltips="1" connect="1" arrows="1" fold="1" page="1" pageScale="1" pageWidth="4681" pageHeight="3300" math="0" shadow="0">
      <root>
        <mxCell id="0" />
        <mxCell id="1" parent="0" />
        <mxCell id="4vM3BnQu04VUz8OyYKwY-1" value="DictionaryEnglishVietNam" style="whiteSpace=wrap;html=1;align=center;" parent="1" vertex="1">
          <mxGeometry x="270" y="270" width="170" height="90" as="geometry" />
        </mxCell>
        <mxCell id="4vM3BnQu04VUz8OyYKwY-2" value="idx" style="ellipse;whiteSpace=wrap;html=1;align=center;fontStyle=4;" parent="1" vertex="1">
          <mxGeometry x="170" y="210" width="100" height="40" as="geometry" />
        </mxCell>
        <mxCell id="4vM3BnQu04VUz8OyYKwY-8" value="" style="endArrow=none;html=1;rounded=0;entryX=0.79;entryY=0.875;entryDx=0;entryDy=0;entryPerimeter=0;exitX=0.459;exitY=0.022;exitDx=0;exitDy=0;exitPerimeter=0;" parent="1" source="4vM3BnQu04VUz8OyYKwY-1" target="4vM3BnQu04VUz8OyYKwY-2" edge="1">
          <mxGeometry width="50" height="50" relative="1" as="geometry">
            <mxPoint x="700" y="420" as="sourcePoint" />
            <mxPoint x="750" y="370" as="targetPoint" />
          </mxGeometry>
        </mxCell>
        <mxCell id="4vM3BnQu04VUz8OyYKwY-9" value="" style="endArrow=none;html=1;rounded=0;entryX=0.42;entryY=1.025;entryDx=0;entryDy=0;entryPerimeter=0;exitX=0.5;exitY=0;exitDx=0;exitDy=0;" parent="1" source="4vM3BnQu04VUz8OyYKwY-1" edge="1">
          <mxGeometry width="50" height="50" relative="1" as="geometry">
            <mxPoint x="700" y="420" as="sourcePoint" />
            <mxPoint x="352" y="221" as="targetPoint" />
          </mxGeometry>
        </mxCell>
        <mxCell id="4vM3BnQu04VUz8OyYKwY-10" value="" style="endArrow=none;html=1;rounded=0;entryX=0.36;entryY=1.025;entryDx=0;entryDy=0;entryPerimeter=0;exitX=0.5;exitY=0;exitDx=0;exitDy=0;" parent="1" source="4vM3BnQu04VUz8OyYKwY-1" edge="1">
          <mxGeometry width="50" height="50" relative="1" as="geometry">
            <mxPoint x="700" y="420" as="sourcePoint" />
            <mxPoint x="496" y="241" as="targetPoint" />
          </mxGeometry>
        </mxCell>
        <mxCell id="4vM3BnQu04VUz8OyYKwY-11" value="word" style="ellipse;whiteSpace=wrap;html=1;align=center;" parent="1" vertex="1">
          <mxGeometry x="300" y="180" width="100" height="40" as="geometry" />
        </mxCell>
        <mxCell id="4vM3BnQu04VUz8OyYKwY-12" value="detail" style="ellipse;whiteSpace=wrap;html=1;align=center;" parent="1" vertex="1">
          <mxGeometry x="470" y="210" width="100" height="40" as="geometry" />
        </mxCell>
        <mxCell id="4vM3BnQu04VUz8OyYKwY-13" value="RecentTable" style="whiteSpace=wrap;html=1;align=center;" parent="1" vertex="1">
          <mxGeometry x="560" y="520" width="170" height="100" as="geometry" />
        </mxCell>
        <mxCell id="4vM3BnQu04VUz8OyYKwY-14" value="DailyTable" style="whiteSpace=wrap;html=1;align=center;" parent="1" vertex="1">
          <mxGeometry x="180" y="420" width="150" height="90" as="geometry" />
        </mxCell>
        <mxCell id="4vM3BnQu04VUz8OyYKwY-17" value="FavoritesTable" style="whiteSpace=wrap;html=1;align=center;" parent="1" vertex="1">
          <mxGeometry x="850" y="290" width="350" height="110" as="geometry" />
        </mxCell>
        <mxCell id="bjtL-C36qeJ4y65bh0J6-1" value="Game2" style="rounded=0;whiteSpace=wrap;html=1;" vertex="1" parent="1">
          <mxGeometry x="670" y="360" width="120" height="60" as="geometry" />
        </mxCell>
      </root>
    </mxGraphModel>
  </diagram>
</mxfile>
